#!OML:ASF H:\Pregnant\Project 1\Capture day 1\Session 1\femalepreg.ASF
:FULLY-SPECIFIED
:DEGREES
2005
root 10.4706 15.591 6.94358 19.3396 -11.6624 -2.88907
lowerback -23.4569 0.0761198 2.46113
upperback -7.94885 -0.679062 2.32785
thorax 4.34251 -0.36414 0.923537
lowerneck -17.1953 2.72164 5.22684
upperneck 24.2277 2.95943 -2.45834
head 10.767 1.527 -1.34287
rclavicle 1.65488e-014 8.74653e-015
rhumerus -33.4276 11.3023 -85.3908
rradius 24.468
rwrist 3.20254
rhand -19.0557 -19.8262
rfingers 7.12502
rthumb 7.2514 -49.682
lclavicle 1.65488e-014 8.74653e-015
lhumerus -45.9991 -24.847 98.6994
lradius 70.2614
lwrist 59.3441
lhand -37.5999 21.5814
lfingers 7.12502
lthumb -10.6534 51.2913
rfemur -47.4409 22.6847 16.192
rtibia 37.5409
rfoot -8.25597 4.15091
rtoes -6.8036
lfemur -6.95081 -11.4333 -23.4324
ltibia 9.26792
lfoot -16.1657 0.213236
ltoes -20.2828
2006
root 10.4599 15.592 6.97308 19.4332 -11.8156 -3.01673
lowerback -23.6566 0.136083 2.61498
upperback -8.00914 -0.649559 2.40619
thorax 4.37485 -0.350994 0.928424
lowerneck -17.0769 2.72585 5.20099
upperneck 24.4426 2.98151 -2.45634
head 10.824 1.53669 -1.33668
rclavicle -9.88954e-015 1.94809e-014
rhumerus -32.3173 11.103 -85.2949
rradius 25.0587
rwrist 1.9244
rhand -19.5256 -20.1492
rfingers 7.12502
rthumb 6.79779 -50.0201
lclavicle -9.88954e-015 1.94809e-014
lhumerus -46.0057 -25.3185 98.9005
lradius 70.1209
lwrist 58.9252
lhand -37.4032 22.0196
lfingers 7.12502
lthumb -10.4636 51.7392
rfemur -47.2548 22.1143 16.7021
rtibia 37.4506
rfoot -8.44516 4.99538
rtoes -6.11756
lfemur -6.57756 -11.2519 -23.351
ltibia 8.75427
lfoot -16.1087 0.180311
ltoes -20.4013
2007
root 10.4487 15.5921 7.00169 19.5059 -11.9768 -3.12162
lowerback -23.8284 0.187522 2.72863
upperback -8.06773 -0.621498 2.48476
thorax 4.39554 -0.338308 0.956308
lowerneck -16.986 2.73401 5.17806
upperneck 24.68 3.00733 -2.45517
head 10.8951 1.5481 -1.3306
rclavicle 1.91827e-014 -6.75868e-015
rhumerus -31.2387 10.9106 -85.2223
rradius 25.6856
rwrist 0.636732
rhand -19.9499 -20.4523
rfingers 7.12502
rthumb 6.38815 -50.336
lclavicle 1.91827e-014 -6.75868e-015
lhumerus -46.0154 -25.7918 99.1065
lradius 69.9755
lwrist 58.6098
lhand -37.2328 22.0563
lfingers 7.12502
lthumb -10.2992 51.7842
rfemur -47.0751 21.5378 17.1922
rtibia 37.3942
rfoot -8.62901 5.85289
rtoes -5.39821
lfemur -6.13796 -11.0675 -23.2897
ltibia 8.14732
lfoot -16.0137 0.11259
ltoes -20.4326
2008
root 10.437 15.5915 7.0293 19.5592 -12.1495 -3.20769
lowerback -23.9722 0.23533 2.80676
upperback -8.12338 -0.589119 2.56108
thorax 4.40578 -0.323291 1.00334
lowerneck -16.9324 2.74433 5.16513
upperneck 24.9452 3.03314 -2.4594
head 10.9845 1.55958 -1.32796
rclavicle 7.95139e-015 -7.55382e-015
rhumerus -30.1929 10.7212 -85.1723
rradius 26.3445
rwrist -0.643999
rhand -20.3445 -20.7006
rfingers 7.12502
rthumb 6.00721 -50.5954
lclavicle 7.95139e-015 -7.55382e-015
lhumerus -46.0251 -26.2694 99.3163
lradius 69.8228
lwrist 58.4096
lhand -37.1633 21.551
lfingers 7.12502
lthumb -10.2322 51.2821
rfemur -46.9033 20.9745 17.6568
rtibia 37.3659
rfoot -8.79799 6.70811
rtoes -4.65273
lfemur -5.63962 -10.8771 -23.2454
ltibia 7.45952
lfoot -15.8875 0.0185712
ltoes -20.3941
2009
root 10.4247 15.5901 7.05574 19.5943 -12.3322 -3.28058
lowerback -24.0907 0.281187 2.85731
upperback -8.17163 -0.551905 2.63285
thorax 4.41169 -0.305677 1.0626
lowerneck -16.921 2.75628 5.16595
upperneck 25.2376 3.05605 -2.46614
head 11.0929 1.57048 -1.32873
rclavicle -1.88845e-015 1.19271e-015
rhumerus -29.1748 10.535 -85.1495
rradius 27.0293
rwrist -1.9103
rhand -20.7087 -20.8797
rfingers 7.12502
rthumb 5.65559 -50.7843
lclavicle -1.88845e-015 1.19271e-015
lhumerus -46.0259 -26.7496 99.519
lradius 69.6613
lwrist 58.3184
lhand -37.0956 20.7747
lfingers 7.12502
lthumb -10.1669 50.509
rfemur -46.7408 20.451 18.0904
rtibia 37.3585
rfoot -8.95156 7.53537
rtoes -3.91871
lfemur -5.09168 -10.6799 -23.2117
ltibia 6.70645
lfoot -15.7374 -0.0964
ltoes -20.3079
2010
root 10.4124 15.588 7.0803 19.6158 -12.518 -3.34189
lowerback -24.1808 0.323194 2.88628
upperback -8.21599 -0.513264 2.70012
thorax 4.40791 -0.287245 1.12974
lowerneck -16.9544 2.77232 5.17845
upperneck 25.5605 3.07872 -2.47058
head 11.2224 1.58247 -1.33043
rclavicle -9.93923e-017 3.57812e-014
rhumerus -28.1862 10.3494 -85.1502
rradius 27.7318
rwrist -3.12596
rhand -21.0271 -20.9837
rfingers 7.12502
rthumb 5.3482 -50.8962
lclavicle -9.93923e-017 3.57812e-014
lhumerus -46.0154 -27.2251 99.7118
lradius 69.4889
lwrist 58.32
lhand -36.9979 19.9334
lfingers 7.12502
lthumb -10.0726 49.6723
rfemur -46.5929 19.9733 18.488
rtibia 37.3673
rfoot -9.08829 8.31796
rtoes -3.21838
lfemur -4.50551 -10.4823 -23.1847
ltibia 5.89156
lfoot -15.559 -0.228154
ltoes -20.1821
2011
root 10.3995 15.5852 7.10352 19.6221 -12.7124 -3.39935
lowerback -24.2431 0.362675 2.89308
upperback -8.25815 -0.471701 2.76976
thorax 4.39294 -0.267202 1.21289
lowerneck -16.9958 2.7863 5.19555
upperneck 25.8889 3.09797 -2.47925
head 11.3565 1.59276 -1.33496
rclavicle 2.92213e-014 -6.36111e-015
rhumerus -27.2389 10.1838 -85.173
rradius 28.452
rwrist -4.28667
rhand -21.2925 -21.0623
rfingers 7.12502
rthumb 5.09195 -50.9811
lclavicle 2.92213e-014 -6.36111e-015
lhumerus -46.0013 -27.6839 99.903
lradius 69.3033
lwrist 58.3826
lhand -36.853 19.0875
lfingers 7.12502
lthumb -9.93285 48.8331
rfemur -46.4532 19.5759 18.8481
rtibia 37.3869
rfoot -9.20535 9.02513
rtoes -2.57313
lfemur -3.8776 -10.2765 -23.1582
ltibia 5.02347
lfoot -15.361 -0.372803
ltoes -20.0123
2012
root 10.3864 15.5816 7.12529 19.6147 -12.9082 -3.45457
lowerback -24.2791 0.402491 2.8898
upperback -8.29789 -0.425713 2.83352
thorax 4.36753 -0.244967 1.29656
lowerneck -17.0436 2.79928 5.22335
upperneck 26.2154 3.11046 -2.48204
head 11.4919 1.60176 -1.34012
rclavicle -9.74045e-015 4.77083e-015
rhumerus -26.3316 10.0215 -85.2228
rradius 29.1822
rwrist -5.37196
rhand -21.5269 -21.1441
rfingers 7.12502
rthumb 4.86557 -51.0682
lclavicle -9.74045e-015 4.77083e-015
lhumerus -45.9796 -28.1358 100.084
lradius 69.0977
lwrist 58.4678
lhand -36.6413 18.3391
lfingers 7.12502
lthumb -9.72857 48.0944
rfemur -46.321 19.2677 19.1681
rtibia 37.4146
rfoot -9.30269 9.63144
rtoes -2.01837
lfemur -3.20795 -10.0693 -23.1305
ltibia 4.09597
lfoot -15.1375 -0.520037
ltoes -19.8664
2013
root 10.3733 15.5776 7.14547 19.6016 -13.1077 -3.51335
lowerback -24.2908 0.439282 2.87548
upperback -8.34267 -0.380107 2.9033
thorax 4.32457 -0.222875 1.39281
lowerneck -17.0781 2.81058 5.23639
upperneck 26.5364 3.12154 -2.47095
head 11.6228 1.61051 -1.33799
rclavicle -1.22253e-014 2.8625e-014
rhumerus -25.4742 9.8822 -85.2889
rradius 29.9206
rwrist -6.36564
rhand -21.7352 -21.2277
rfingers 7.12502
rthumb 4.66444 -51.1563
lclavicle -1.22253e-014 2.8625e-014
lhumerus -45.9552 -28.5589 100.266
lradius 68.8624
lwrist 58.5326
lhand -36.3602 17.684
lfingers 7.12502
lthumb -9.45739 47.4518
rfemur -46.2006 19.0531 19.4508
rtibia 37.4459
rfoot -9.38115 10.1359
rtoes -1.56067
lfemur -2.48939 -9.8569 -23.0951
ltibia 3.08295
lfoot -14.8763 -0.672559
ltoes -19.7625
